<mxfile host="app.diagrams.net" modified="2023-04-10T07:17:47.369Z" agent="Mozilla/5.0 (Windows NT 10.0; Win64; x64) AppleWebKit/537.36 (KHTML, like Gecko) Chrome/112.0.0.0 Safari/537.36 Edg/112.0.1722.34" etag="PYbfMpZZXt5-34UbUJFi" version="21.1.5" type="github">
  <diagram name="第 1 页" id="RShWS16Az4YjrkVI9PGQ">
    <mxGraphModel dx="737" dy="430" grid="1" gridSize="10" guides="1" tooltips="1" connect="1" arrows="1" fold="1" page="1" pageScale="1" pageWidth="827" pageHeight="1169" math="0" shadow="0">
      <root>
        <mxCell id="0" />
        <mxCell id="1" parent="0" />
        <mxCell id="bnW8rye_Hrd_K7__5PNn-1" value="" style="whiteSpace=wrap;html=1;aspect=fixed;" vertex="1" parent="1">
          <mxGeometry x="20" y="190" width="200" height="200" as="geometry" />
        </mxCell>
        <mxCell id="bnW8rye_Hrd_K7__5PNn-2" value="坪山影棚内网" style="text;html=1;strokeColor=none;fillColor=none;align=center;verticalAlign=middle;whiteSpace=wrap;rounded=0;" vertex="1" parent="1">
          <mxGeometry x="70" y="150" width="90" height="30" as="geometry" />
        </mxCell>
        <mxCell id="bnW8rye_Hrd_K7__5PNn-3" value="perforce应用主机" style="rounded=0;whiteSpace=wrap;html=1;" vertex="1" parent="1">
          <mxGeometry x="70" y="220" width="100" height="30" as="geometry" />
        </mxCell>
        <mxCell id="bnW8rye_Hrd_K7__5PNn-4" value="frp客户端" style="rounded=0;whiteSpace=wrap;html=1;" vertex="1" parent="1">
          <mxGeometry x="70" y="320" width="100" height="30" as="geometry" />
        </mxCell>
        <mxCell id="bnW8rye_Hrd_K7__5PNn-15" style="edgeStyle=orthogonalEdgeStyle;rounded=0;orthogonalLoop=1;jettySize=auto;html=1;entryX=1;entryY=0.3333333333333333;entryDx=0;entryDy=0;entryPerimeter=0;" edge="1" parent="1" target="bnW8rye_Hrd_K7__5PNn-10">
          <mxGeometry relative="1" as="geometry">
            <mxPoint x="510" y="190" as="sourcePoint" />
          </mxGeometry>
        </mxCell>
        <mxCell id="bnW8rye_Hrd_K7__5PNn-5" value="" style="whiteSpace=wrap;html=1;aspect=fixed;" vertex="1" parent="1">
          <mxGeometry x="520" y="180" width="210" height="210" as="geometry" />
        </mxCell>
        <mxCell id="bnW8rye_Hrd_K7__5PNn-6" value="公网主机" style="text;html=1;strokeColor=none;fillColor=none;align=center;verticalAlign=middle;whiteSpace=wrap;rounded=0;" vertex="1" parent="1">
          <mxGeometry x="570" y="140" width="90" height="30" as="geometry" />
        </mxCell>
        <mxCell id="bnW8rye_Hrd_K7__5PNn-7" value="frp服务端" style="rounded=0;whiteSpace=wrap;html=1;" vertex="1" parent="1">
          <mxGeometry x="565" y="320" width="120" height="30" as="geometry" />
        </mxCell>
        <mxCell id="bnW8rye_Hrd_K7__5PNn-8" value="" style="endArrow=classic;html=1;rounded=0;entryX=0;entryY=0.75;entryDx=0;entryDy=0;" edge="1" parent="1" target="bnW8rye_Hrd_K7__5PNn-5">
          <mxGeometry width="50" height="50" relative="1" as="geometry">
            <mxPoint x="220" y="340" as="sourcePoint" />
            <mxPoint x="270" y="290" as="targetPoint" />
          </mxGeometry>
        </mxCell>
        <mxCell id="bnW8rye_Hrd_K7__5PNn-9" value="" style="endArrow=classic;html=1;rounded=0;" edge="1" parent="1">
          <mxGeometry width="50" height="50" relative="1" as="geometry">
            <mxPoint x="520" y="360" as="sourcePoint" />
            <mxPoint x="220" y="360" as="targetPoint" />
          </mxGeometry>
        </mxCell>
        <mxCell id="bnW8rye_Hrd_K7__5PNn-11" style="edgeStyle=orthogonalEdgeStyle;rounded=0;orthogonalLoop=1;jettySize=auto;html=1;entryX=0.129;entryY=-0.013;entryDx=0;entryDy=0;entryPerimeter=0;" edge="1" parent="1" source="bnW8rye_Hrd_K7__5PNn-10" target="bnW8rye_Hrd_K7__5PNn-5">
          <mxGeometry relative="1" as="geometry" />
        </mxCell>
        <mxCell id="bnW8rye_Hrd_K7__5PNn-10" value="Actor" style="shape=umlActor;verticalLabelPosition=bottom;verticalAlign=top;html=1;outlineConnect=0;" vertex="1" parent="1">
          <mxGeometry x="384" width="30" height="60" as="geometry" />
        </mxCell>
        <mxCell id="bnW8rye_Hrd_K7__5PNn-16" value="通过17100端口通信" style="text;html=1;strokeColor=none;fillColor=none;align=center;verticalAlign=middle;whiteSpace=wrap;rounded=0;" vertex="1" parent="1">
          <mxGeometry x="290" y="310" width="110" height="30" as="geometry" />
        </mxCell>
      </root>
    </mxGraphModel>
  </diagram>
</mxfile>
